<svg xmlns="http://www.w3.org/2000/svg" width="277" height="277" fill="none" viewBox="0 0 277 277"><g clip-path="url(#clip0_2_3)"><g filter="url(#filter0_d_2_3)"><path stroke="#fff" stroke-linecap="round" stroke-width="7" d="M8 53V52.1C8 38.9661 8 32.3992 10.0208 27.1757C13.0688 19.2972 19.2972 13.0688 27.1757 10.0208C32.3992 8 38.9661 8 52.1 8H53"/></g><g filter="url(#filter1_d_2_3)"><path stroke="#fff" stroke-linecap="round" stroke-width="7" d="M224 8H224.9C238.034 8 244.601 8 249.824 10.0208C257.703 13.0688 263.931 19.2972 266.979 27.1757C269 32.3992 269 38.9661 269 52.1V53"/></g><g filter="url(#filter2_d_2_3)"><path stroke="#fff" stroke-linecap="round" stroke-width="7" d="M53 269H52.1C38.9661 269 32.3992 269 27.1757 266.979C19.2972 263.931 13.0688 257.703 10.0208 249.824C8 244.601 8 238.034 8 224.9V224"/></g><g filter="url(#filter3_d_2_3)"><path stroke="#fff" stroke-linecap="round" stroke-width="7" d="M269 224V224.9C269 238.034 269 244.601 266.979 249.824C263.931 257.703 257.703 263.931 249.824 266.979C244.601 269 238.034 269 224.9 269H224"/></g></g><defs><filter id="filter0_d_2_3" width="60" height="60" x=".5" y=".5" color-interpolation-filters="sRGB" filterUnits="userSpaceOnUse"><feFlood flood-opacity="0" result="BackgroundImageFix"/><feColorMatrix in="SourceAlpha" result="hardAlpha" type="matrix" values="0 0 0 0 0 0 0 0 0 0 0 0 0 0 0 0 0 0 127 0"/><feOffset/><feGaussianBlur stdDeviation="2"/><feComposite in2="hardAlpha" operator="out"/><feColorMatrix type="matrix" values="0 0 0 0 0 0 0 0 0 0 0 0 0 0 0 0 0 0 0.25 0"/><feBlend in2="BackgroundImageFix" mode="normal" result="effect1_dropShadow_2_3"/><feBlend in="SourceGraphic" in2="effect1_dropShadow_2_3" mode="normal" result="shape"/></filter><filter id="filter1_d_2_3" width="60" height="60" x="216.5" y=".5" color-interpolation-filters="sRGB" filterUnits="userSpaceOnUse"><feFlood flood-opacity="0" result="BackgroundImageFix"/><feColorMatrix in="SourceAlpha" result="hardAlpha" type="matrix" values="0 0 0 0 0 0 0 0 0 0 0 0 0 0 0 0 0 0 127 0"/><feOffset/><feGaussianBlur stdDeviation="2"/><feComposite in2="hardAlpha" operator="out"/><feColorMatrix type="matrix" values="0 0 0 0 0 0 0 0 0 0 0 0 0 0 0 0 0 0 0.25 0"/><feBlend in2="BackgroundImageFix" mode="normal" result="effect1_dropShadow_2_3"/><feBlend in="SourceGraphic" in2="effect1_dropShadow_2_3" mode="normal" result="shape"/></filter><filter id="filter2_d_2_3" width="60" height="60" x=".5" y="216.5" color-interpolation-filters="sRGB" filterUnits="userSpaceOnUse"><feFlood flood-opacity="0" result="BackgroundImageFix"/><feColorMatrix in="SourceAlpha" result="hardAlpha" type="matrix" values="0 0 0 0 0 0 0 0 0 0 0 0 0 0 0 0 0 0 127 0"/><feOffset/><feGaussianBlur stdDeviation="2"/><feComposite in2="hardAlpha" operator="out"/><feColorMatrix type="matrix" values="0 0 0 0 0 0 0 0 0 0 0 0 0 0 0 0 0 0 0.25 0"/><feBlend in2="BackgroundImageFix" mode="normal" result="effect1_dropShadow_2_3"/><feBlend in="SourceGraphic" in2="effect1_dropShadow_2_3" mode="normal" result="shape"/></filter><filter id="filter3_d_2_3" width="60" height="60" x="216.5" y="216.5" color-interpolation-filters="sRGB" filterUnits="userSpaceOnUse"><feFlood flood-opacity="0" result="BackgroundImageFix"/><feColorMatrix in="SourceAlpha" result="hardAlpha" type="matrix" values="0 0 0 0 0 0 0 0 0 0 0 0 0 0 0 0 0 0 127 0"/><feOffset/><feGaussianBlur stdDeviation="2"/><feComposite in2="hardAlpha" operator="out"/><feColorMatrix type="matrix" values="0 0 0 0 0 0 0 0 0 0 0 0 0 0 0 0 0 0 0.25 0"/><feBlend in2="BackgroundImageFix" mode="normal" result="effect1_dropShadow_2_3"/><feBlend in="SourceGraphic" in2="effect1_dropShadow_2_3" mode="normal" result="shape"/></filter><clipPath id="clip0_2_3"><rect width="277" height="277" fill="#fff"/></clipPath></defs></svg>